<svg width="36" height="36" viewBox="0 0 36 36" fill="none" xmlns="http://www.w3.org/2000/svg">
<circle cx="18" cy="18" r="18" fill="#FFF1ED"/>
<path d="M17.9997 9.14613C20.8834 9.14613 21.225 9.15715 22.3638 9.20911C23.4168 9.25712 23.9887 9.43306 24.3692 9.58097C24.8734 9.77689 25.2331 10.0109 25.611 10.3888C25.989 10.7668 26.223 11.1265 26.4189 11.6306C26.5668 12.0112 26.7428 12.5831 26.7908 13.636C26.8427 14.7749 26.8538 15.1165 26.8538 18.0001C26.8538 20.8839 26.8427 21.2255 26.7908 22.3643C26.7428 23.4173 26.5668 23.9891 26.4189 24.3697C26.223 24.8738 25.989 25.2336 25.6111 25.6115C25.2331 25.9894 24.8734 26.2234 24.3692 26.4193C23.9887 26.5673 23.4168 26.7432 22.3638 26.7912C21.2252 26.8432 20.8836 26.8542 17.9997 26.8542C15.1158 26.8542 14.7743 26.8432 13.6356 26.7912C12.5826 26.7432 12.0107 26.5673 11.6302 26.4193C11.1261 26.2234 10.7663 25.9894 10.3884 25.6115C10.0105 25.2336 9.77641 24.8738 9.58049 24.3697C9.43258 23.9891 9.25664 23.4173 9.20863 22.3643C9.15667 21.2255 9.14565 20.8839 9.14565 18.0001C9.14565 15.1165 9.15667 14.7749 9.20863 13.636C9.25664 12.5831 9.43258 12.0112 9.58049 11.6306C9.77641 11.1265 10.0104 10.7668 10.3884 10.3889C10.7663 10.0109 11.1261 9.77689 11.6302 9.58097C12.0107 9.43306 12.5826 9.25712 13.6356 9.20911C14.7744 9.15715 15.116 9.14613 17.9997 9.14613ZM17.9997 7.2002C15.0666 7.2002 14.6988 7.21263 13.5469 7.26519C12.3973 7.31762 11.6123 7.5002 10.9253 7.76716C10.2151 8.04316 9.61281 8.41244 9.01236 9.01285C8.41196 9.61329 8.04267 10.2156 7.76671 10.9258C7.49972 11.6127 7.31713 12.3978 7.2647 13.5473C7.21214 14.6993 7.19971 15.0671 7.19971 18.0001C7.19971 20.9333 7.21214 21.301 7.2647 22.453C7.31713 23.6025 7.49972 24.3876 7.76671 25.0745C8.04267 25.7847 8.41196 26.387 9.01236 26.9875C9.61281 27.5879 10.2151 27.9572 10.9253 28.2331C11.6123 28.5001 12.3973 28.6827 13.5469 28.7351C14.6988 28.7877 15.0666 28.8001 17.9997 28.8001C20.9328 28.8001 21.3006 28.7877 22.4525 28.7351C23.6021 28.6827 24.3872 28.5001 25.0741 28.2331C25.7843 27.9572 26.3866 27.5879 26.987 26.9875C27.5875 26.387 27.9567 25.7847 28.2327 25.0745C28.4997 24.3876 28.6823 23.6025 28.7347 22.453C28.7873 21.301 28.7997 20.9333 28.7997 18.0001C28.7997 15.0671 28.7873 14.6993 28.7347 13.5473C28.6823 12.3978 28.4997 11.6127 28.2327 10.9258C27.9567 10.2156 27.5875 9.61329 26.987 9.01285C26.3866 8.41244 25.7843 8.04316 25.0741 7.76716C24.3872 7.5002 23.6021 7.31762 22.4525 7.26519C21.3006 7.21263 20.9328 7.2002 17.9997 7.2002Z" fill="#2C392C"/>
<path d="M18.0064 12.459C14.9434 12.459 12.4604 14.942 12.4604 18.0049C12.4604 21.0679 14.9434 23.5508 18.0064 23.5508C21.0694 23.5508 23.5523 21.0679 23.5523 18.0049C23.5523 14.942 21.0694 12.459 18.0064 12.459ZM18.0064 21.6049C16.0182 21.6049 14.4064 19.9931 14.4064 18.0049C14.4064 16.0167 16.0182 14.4049 18.0064 14.4049C19.9946 14.4049 21.6064 16.0167 21.6064 18.0049C21.6064 19.9931 19.9946 21.6049 18.0064 21.6049Z" fill="#2C392C"/>
<path d="M25.0661 12.2365C25.0661 12.9522 24.4859 13.5324 23.7701 13.5324C23.0544 13.5324 22.4741 12.9522 22.4741 12.2365C22.4741 11.5207 23.0544 10.9404 23.7701 10.9404C24.4859 10.9404 25.0661 11.5207 25.0661 12.2365Z" fill="#2C392C"/>
</svg>
